{"title":"Cop.Car.2015.WEBRiP.XViD.AC3.5.1.ReLeNTLesS","uid":12232712,"size":1131570783,"categoryP":"video","categoryS":"movies","magnet":"?xt=urn:btih:985d099d5ecd8ea938763fd308d1ebd691654ddc&amp;dn=Cop.Car.2015.WEBRiP.XViD.AC3.5.1.ReLeNTLesS&amp;tr=udp%3A%2F%2Ftracker.openbittorrent.com%3A80&amp;tr=udp%3A%2F%2Fopen.demonii.com%3A1337&amp;tr=udp%3A%2F%2Ftracker.coppersurfer.tk%3A6969&amp;tr=udp%3A%2F%2Fexodus.desync.com%3A6969","seeders":0,"leechers":0,"uploader":"TvTeam","files":4,"time":1439597715,"description":"------------------------------------------------------------------------\n\n &lt;a href=&quot; https://www.torrenting.com&quot; rel=&quot;nofollow&quot; target=&quot;_NEW&quot;&gt; https://www.torrenting.com&lt;/a&gt;\n\nSign up is OPEN - for time being. Come and have fun\n\n.......................................................................................................................P0STER\n[img]http://i.imgur.com/YvjDHiY.png[/img]\n\niMDB: http://www.imdb.com/title/tt3813310/\n\nGeneral\nComplete name               : Cop.Car.2015.WEBRiP.XViD.AC3.5.1.ReLeNTLesS.avi\nFormat                      : AVI\nFormat/Info                 : Audio Video Interleave\nFile size                   : 1.04 GiB\nDuration                    : 1h 27mn\nOverall bit rate            : 1 703 Kbps\n\nVideo\nID                          : 0\nFormat                      : MPEG-4 Visual\nFormat profile              : Advanced Simple@L5\nFormat settings, BVOP       : 1\nFormat settings, QPel       : No\nFormat settings, GMC        : No warppoints\nFormat settings, Matrix     : Default (H.263)\nMuxing mode                 : Packed bitstream\nCodec ID                    : XVID\nCodec ID/Hint               : XviD\nDuration                    : 1h 27mn\nBit rate                    : 1 503 Kbps\nWidth                       : 720 pixels\nHeight                      : 304 pixels\nDisplay aspect ratio        : 2.35:1\nFrame rate                  : 23.976 fps\nColor space                 : YUV\nChroma subsampling          : 4:2:0\nBit depth                   : 8 bits\nScan type                   : Progressive\nCompression mode            : Lossy\nBits/(Pixel*Frame)          : 0.286\nStream size                 : 944 MiB (88%)\nWriting library             : XviD 1.2.1 (UTC 2008-12-04)\n\nAudio\nID                          : 1\nFormat                      : AC-3\nFormat/Info                 : Audio Coding 3\nMode extension              : CM (complete main)\nFormat settings, Endianness : Big\nCodec ID                    : 2000\nDuration                    : 1h 27mn\nBit rate mode               : Constant\nBit rate                    : 192 Kbps\nChannel(s)                  : 6 channels\nChannel positions           : Front: L C R, Side: L R, LFE\nSampling rate               : 48.0 KHz\nCompression mode            : Lossy\nStream size                 : 121 MiB (11%)\nAlignment                   : Aligned on interleaves\nInterleave, duration        : 64 ms (1.53 video frames)\nInterleave, preload duratio : 192 ms\nTitle                       : Cop.Car.2015.ReLeNTLesS.audio.AC3.5.1.English_new\nSample Included             : Yes\nSource                      : PLAYNOW Thanks\n\nPL0T\nA small town sheriff sets out to find the two kids who have taken his car on a joy ride.\n\nCAST\nDirector: Jon Watts\nWriters: Jon Watts, Christopher D. Ford\nStars: Kevin Bacon, James Freedson-Jackson, Hays Wellford\n\nSCREENS\n[img]http://i.imgur.com/BB3MSZE.png[/img]\n[img]http://i.imgur.com/aCYeO86.png[/img]\n[img]http://i.imgur.com/Eeug9fp.png[/img]\n[img]http://i.imgur.com/U0jvqBT.png[/img]\n[img]http://i.imgur.com/ZErJXFt.png[/img]\n[img]http://i.imgur.com/eT5ri5e.png[/img]\n\nTRAiLER\n\nGREETZ\n\n\nHIVE-CM8, Blackjesus, M0RPH, M00SE, MiLLENiUM,\n\nMANiX, TiTAN, Anonymous, TuX, \n\nACAB, KingStoner, FooKas, 4PlayHD, \n\nGodFather, Cld.... \n\nKeep up the good work guyz","torrent":{"xt":"urn:btih:985d099d5ecd8ea938763fd308d1ebd691654ddc","amp;dn":"Cop.Car.2015.WEBRiP.XViD.AC3.5.1.ReLeNTLesS","amp;tr":["udp%3A%2F%2Ftracker.openbittorrent.com%3A80","udp%3A%2F%2Fopen.demonii.com%3A1337","udp%3A%2F%2Ftracker.coppersurfer.tk%3A6969","udp%3A%2F%2Fexodus.desync.com%3A6969"],"infoHash":"985d099d5ecd8ea938763fd308d1ebd691654ddc","infoHashBuffer":{"type":"Buffer","data":[152,93,9,157,94,205,142,169,56,118,63,211,8,209,235,214,145,101,77,220]},"announce":[],"urlList":[]}}